<svg width="32" height="29" viewBox="0 0 32 29" fill="none" xmlns="http://www.w3.org/2000/svg">
<path d="M26.4541 27.13L23.6341 28.35L12.3641 20.49L9.36411 22.15C6.95411 23.59 4.61411 23.69 3.49411 23.05L3.26407 23.16C1.52407 23.92 0.494073 23.24 0.144073 22.42C-0.205927 21.6 -0.00589967 20.42 1.7341 19.64L1.96408 19.54C2.17408 18.54 3.08412 16.86 6.63412 15.87L9.90408 14.82L11.9041 1.22998L14.7241 0L16.9141 12.59L24.9741 9.82999L26.1941 6.59998L28.4341 5.76999L28.5941 8.76999L29.3941 8.69998L30.1241 10.37L29.5241 10.96L31.6441 13.16L29.5041 14.23L26.3241 12.91L18.7941 16.91L26.4541 27.13ZM26.2441 12.18L29.4441 13.51L30.4441 12.99L28.5041 10.99L29.2341 10.25L28.8941 9.45999L27.8941 9.54999L27.7441 6.75L26.6541 7.14999L25.4341 10.39L16.3141 13.5L14.1441 0.98999L12.4541 1.72L10.5041 15.36L6.81412 16.54C3.37412 17.49 2.69409 19.03 2.59409 19.86V20.07L2.39407 20.14C2.26702 20.1762 2.14326 20.223 2.02408 20.28C0.954078 20.74 0.474088 21.47 0.784088 22.17C1.09409 22.87 1.94407 23.03 3.01407 22.56C3.13447 22.5114 3.25145 22.4546 3.36411 22.39L3.55411 22.28L3.7341 22.41C4.4641 22.95 6.59411 23.05 9.05411 21.59L12.4141 19.71L23.7141 27.6L25.4041 26.87L17.7441 16.73L26.2441 12.18Z" fill="#999999"/>
</svg>
