<svg width="23" height="24" viewBox="0 0 23 24" fill="none" xmlns="http://www.w3.org/2000/svg">
<path d="M19.3877 1.15495C19.1436 1.46469 19.1436 1.62424 19.3783 2.03722C19.8664 2.89134 20.5046 4.21475 20.7392 4.85299C21.2649 6.32657 21.4526 7.38718 21.5089 9.28313C21.537 10.2593 21.537 11.0477 21.4995 11.0477C21.462 11.0477 20.5797 10.3625 19.5378 9.52716C18.496 8.68243 17.4917 7.92218 17.3134 7.8377C16.9004 7.62183 16.3373 7.63121 15.8586 7.84709C15.6521 7.95033 14.6853 8.68243 13.7186 9.49901C12.4984 10.5033 11.9165 10.935 11.8414 10.8787C11.7757 10.8318 10.4523 9.78058 8.90364 8.53226C7.34558 7.29332 5.97524 6.25149 5.86261 6.21394C5.43086 6.07316 4.74569 6.13886 4.39841 6.34535C3.72263 6.74894 1.00072 9.07664 0.944403 9.31129C0.813001 9.81813 1.39493 10.3437 1.85483 10.1372C1.96747 10.0809 2.71834 9.48962 3.51614 8.82322C4.31394 8.15682 5.03665 7.58428 5.12112 7.55613C5.2056 7.51858 5.37454 7.56551 5.50595 7.64999C6.05033 8.01604 18.6274 18.1153 18.6274 18.1903C18.6274 18.2279 18.1769 18.7253 17.6231 19.2885C16.5062 20.4242 15.6145 21.1187 14.4038 21.8039C13.9626 22.0479 13.5309 22.3107 13.4464 22.3858C13.2118 22.5829 13.2305 23.1085 13.4652 23.3432C13.728 23.606 14.0377 23.5778 14.7135 23.2399C18.0737 21.5505 20.9457 18.1622 22.1847 14.4454C22.776 12.6714 22.8886 11.8736 22.8886 9.59286C22.8886 7.32148 22.776 6.52368 22.1847 4.74036C21.8374 3.67037 20.8988 1.73688 20.5046 1.2582C20.1292 0.817059 19.688 0.770128 19.3877 1.15495ZM18.9653 10.86C20.8237 12.3429 21.1992 12.6808 21.1804 12.8592C21.0677 13.6288 19.9978 16.2005 19.5472 16.8012C19.4346 16.9514 19.1436 16.7355 16.2528 14.4172C14.507 13.0187 13.0991 11.8549 13.1273 11.8267C13.5403 11.4043 16.4593 9.07664 16.5719 9.07664C16.6564 9.07664 17.7264 9.88383 18.9653 10.86Z" fill="#FFB60A"/>
</svg>
